<?xml version="1.0" encoding="UTF-8"?>
<svg version="1.1" xmlns="http://www.w3.org/2000/svg" width="657" height="432">
    <path
        d="M0 0 C216.81 0 433.62 0 657 0 C657 142.56 657 285.12 657 432 C440.19 432 223.38 432 0 432 C0 289.44 0 146.88 0 0 Z "
        fill="#2C2C2C" transform="translate(0,0)" />
    <path
        d="M0 0 C0.99 0.495 0.99 0.495 2 1 C2 4.96 2 8.92 2 13 C2.49371094 12.14535156 2.98742187 11.29070312 3.49609375 10.41015625 C4.13675781 9.30542969 4.77742187 8.20070312 5.4375 7.0625 C6.07558594 5.96035156 6.71367187 4.85820312 7.37109375 3.72265625 C9 1 9 1 10 0 C12.8843382 -0.08865208 15.74462158 -0.11521296 18.62890625 -0.09765625 C19.92525246 -0.09553383 19.92525246 -0.09553383 21.24778748 -0.09336853 C24.01939292 -0.08775239 26.7909188 -0.07519719 29.5625 -0.0625 C31.4368478 -0.05748708 33.31119685 -0.05292381 35.18554688 -0.04882812 C39.79042021 -0.03862681 44.3951206 -0.01905467 49 0 C49 5.94 49 11.88 49 18 C45.35240099 19.72781006 41.6958097 21.38136374 38 23 C36.75089844 23.60521484 36.75089844 23.60521484 35.4765625 24.22265625 C24.88959345 28.65773788 12.26732955 27.89915398 1 27 C0 26 0 26 -0.11352539 23.49975586 C-0.10828857 22.41573486 -0.10305176 21.33171387 -0.09765625 20.21484375 C-0.09443359 19.04501953 -0.09121094 17.87519531 -0.08789062 16.66992188 C-0.07951172 15.43822266 -0.07113281 14.20652344 -0.0625 12.9375 C-0.05798828 11.70193359 -0.05347656 10.46636719 -0.04882812 9.19335938 C-0.03699608 6.12885883 -0.02051173 3.06445279 0 0 Z "
        fill="#262625" transform="translate(148,195)" />
    <path
        d="M0 0 C0.93106567 -0.0030011 1.86213135 -0.0060022 2.82141113 -0.00909424 C4.32617004 0.00942596 4.32617004 0.00942596 5.86132812 0.02832031 C7.4091095 0.03113007 7.4091095 0.03113007 8.98815918 0.03399658 C11.17036163 0.04072082 13.35255195 0.05464264 15.53466797 0.07519531 C18.87934542 0.10632216 22.2235515 0.11616337 25.56835938 0.12207031 C27.68685472 0.13124146 29.80534526 0.14161759 31.92382812 0.15332031 C32.92700073 0.15757019 33.93017334 0.16182007 34.96374512 0.16619873 C36.36034363 0.18061005 36.36034363 0.18061005 37.78515625 0.1953125 C39.0140155 0.2055545 39.0140155 0.2055545 40.2677002 0.21600342 C42.39257812 0.35644531 42.39257812 0.35644531 45.39257812 1.35644531 C46.7469748 4.06523867 46.45759263 6.36577799 46.39257812 9.35644531 C47.44445312 9.29457031 48.49632812 9.23269531 49.58007812 9.16894531 C53.55074305 9.36422392 55.23454781 10.05969599 58.39257812 12.35644531 C58.07183393 15.36533137 57.86370672 16.91830603 55.60742188 19.01660156 C54.85589844 19.479375 54.104375 19.94214844 53.33007812 20.41894531 C52.22986328 21.11697266 52.22986328 21.11697266 51.10742188 21.82910156 C44.24879563 25.68769561 37.59106169 28.42670555 30.01757812 30.60644531 C29.11652344 30.87457031 28.21546875 31.14269531 27.28710938 31.41894531 C20.69367825 33.35644531 20.69367825 33.35644531 18.39257812 33.35644531 C18.39257812 34.34644531 18.39257812 35.33644531 18.39257812 36.35644531 C19.05257812 36.35644531 19.71257812 36.35644531 20.39257812 36.35644531 C20.39257812 35.69644531 20.39257812 35.03644531 20.39257812 34.35644531 C28.037314 31.32491212 35.20681213 30.69412271 43.39257812 30.35644531 C43.72257812 29.03644531 44.05257812 27.71644531 44.39257812 26.35644531 C45.05257812 26.35644531 45.71257812 26.35644531 46.39257812 26.35644531 C46.47425258 27.77213595 46.53207511 29.18921336 46.58007812 30.60644531 C46.63228516 31.78980469 46.63228516 31.78980469 46.68554688 32.99707031 C46.29596822 36.13447705 45.82891387 37.29493045 43.39257812 39.35644531 C40.48290581 39.84891671 37.64520596 39.73186504 34.70507812 39.60644531 C33.50915039 39.579375 33.50915039 39.579375 32.2890625 39.55175781 C30.32305363 39.50466778 28.35766319 39.4329243 26.39257812 39.35644531 C26.39257812 41.00644531 26.39257812 42.65644531 26.39257812 44.35644531 C27.38257813 44.68644531 28.37257812 45.01644531 29.39257812 45.35644531 C29.39257812 45.68644531 29.39257812 46.01644531 29.39257812 46.35644531 C22.79257813 46.35644531 16.19257813 46.35644531 9.39257812 46.35644531 C10.38257813 45.03644531 11.37257812 43.71644531 12.39257812 42.35644531 C12.39257812 41.36644531 12.39257812 40.37644531 12.39257812 39.35644531 C7.11257812 39.35644531 1.83257812 39.35644531 -3.60742188 39.35644531 C-3.60742188 39.02644531 -3.60742188 38.69644531 -3.60742188 38.35644531 C0.68257812 37.69644531 4.97257812 37.03644531 9.39257812 36.35644531 C7.69101563 36.60394531 7.69101563 36.60394531 5.95507812 36.85644531 C1.20654556 37.37061763 -3.52272928 37.53656072 -8.29492188 37.60644531 C-9.38148071 37.63834961 -9.38148071 37.63834961 -10.48999023 37.67089844 C-15.27732481 37.70163926 -18.39902799 36.87485425 -22.60742188 34.35644531 C-22.04370773 31.08690329 -21.10779922 29.53068648 -18.60742188 27.35644531 C-17.94742188 27.68644531 -17.28742188 28.01644531 -16.60742188 28.35644531 C-16.93742188 29.67644531 -17.26742187 30.99644531 -17.60742188 32.35644531 C-14.30742187 33.01644531 -11.00742188 33.67644531 -7.60742188 34.35644531 C-7.63098755 32.97138794 -7.63098755 32.97138794 -7.6550293 31.55834961 C-7.70617019 28.13104643 -7.74377722 24.7041489 -7.7722168 21.27661133 C-7.78729956 19.79347332 -7.80776876 18.31037988 -7.83374023 16.82739258 C-7.87014803 14.69503787 -7.88715261 12.56327296 -7.90039062 10.43066406 C-7.9239563 8.50613403 -7.9239563 8.50613403 -7.94799805 6.54272461 C-7.60742188 3.35644531 -7.60742188 3.35644531 -6.37409973 1.67958069 C-4.10455819 -0.02016932 -2.81881903 -0.01254379 0 0 Z M-4.60742188 4.35644531 C-4.63628724 8.66893141 -4.65417442 12.98139293 -4.66992188 17.29394531 C-4.67830078 18.52564453 -4.68667969 19.75734375 -4.6953125 21.02636719 C-4.69853516 22.19619141 -4.70175781 23.36601562 -4.70507812 24.57128906 C-4.71031494 25.65531006 -4.71555176 26.73933105 -4.72094727 27.85620117 C-4.89169084 30.29694479 -4.89169084 30.29694479 -3.60742188 31.35644531 C13.20739165 33.32000089 28.21517199 30.76802173 43.39257812 23.35644531 C44.58599565 22.3831227 44.58599565 22.3831227 44.50610352 20.59057617 C44.5008667 19.84171143 44.49562988 19.09284668 44.49023438 18.32128906 C44.48701172 17.51240234 44.48378906 16.70351562 44.48046875 15.87011719 C44.47208984 15.01998047 44.46371094 14.16984375 44.45507812 13.29394531 C44.45056641 12.43994141 44.44605469 11.5859375 44.44140625 10.70605469 C44.42958186 8.58948868 44.41164581 6.47295846 44.39257812 4.35644531 C38.94851495 4.13332797 33.50712935 3.97037628 28.05957031 3.86206055 C26.20851276 3.81690096 24.35777453 3.75555392 22.5078125 3.67749023 C12.1522978 2.7777723 12.1522978 2.7777723 2.88183594 6.25927734 C1.3014504 8.60295547 0.31367109 10.69294686 -0.60742188 13.35644531 C-1.26742187 14.67644531 -1.92742187 15.99644531 -2.60742188 17.35644531 C-2.60742188 13.06644531 -2.60742188 8.77644531 -2.60742188 4.35644531 C-3.26742187 4.35644531 -3.92742187 4.35644531 -4.60742188 4.35644531 Z "
        fill="#BDA563" transform="translate(152.607421875,190.6435546875)" />
    <path
        d="M0 0 C14.75 0 14.75 0 20 4 C23.26291209 7.56881009 23.52252256 11.11483835 23.3515625 15.78515625 C22.64394301 20.24315906 20.32943298 22.9958033 16.8125 25.65234375 C13.24918301 27.35976647 10.61920655 27.29773476 6.6875 27.1875 C3.3771875 27.0946875 3.3771875 27.0946875 0 27 C0 18.09 0 9.18 0 0 Z "
        fill="#B19456" transform="translate(440,187)" />
    <path
        d="M0 0 C13.33040714 -0.49371878 13.33040714 -0.49371878 16.46875 1.8203125 C18 4 18 4 17.75 7.125 C17.5025 8.07375 17.255 9.0225 17 10 C16.81509993 12.32357511 16.81509993 12.32357511 19 15 C19.6603352 21.05307263 19.6603352 21.05307263 17.4609375 24.20703125 C14.1129099 26.6463085 11.21174389 26.4432141 7.25 26.25 C4.8575 26.1675 2.465 26.085 0 26 C0 17.42 0 8.84 0 0 Z "
        fill="#E8DC8F" transform="translate(360,188)" />
    <path
        d="M0 0 C1.32 0 2.64 0 4 0 C4 34.65 4 69.3 4 105 C2.68 105 1.36 105 0 105 C0 70.35 0 35.7 0 0 Z "
        fill="#CBB16B" transform="translate(231,161)" />
    <path
        d="M0 0 C12.5 0 12.5 0 17 3 C19 5 19 5 19.3125 8.8125 C19.23655163 12.60301431 18.30623182 14.92502424 16 18 C16.3609375 18.56589844 16.721875 19.13179687 17.09375 19.71484375 C17.5578125 20.44832031 18.021875 21.18179688 18.5 21.9375 C18.9640625 22.66839844 19.428125 23.39929688 19.90625 24.15234375 C21 26 21 26 21 27 C18.3125 27.5 18.3125 27.5 15 27 C13.46602189 25.04647233 12.37865298 23.06984483 11.2734375 20.84765625 C9.97286174 18.52489327 9.97286174 18.52489327 6 18 C6 20.97 6 23.94 6 27 C4.02 27 2.04 27 0 27 C0 18.09 0 9.18 0 0 Z "
        fill="#916631" transform="translate(487,187)" />
    <path
        d="M0 0 C5 0 5 0 6.84375 1.50390625 C7.3903125 2.18324219 7.936875 2.86257812 8.5 3.5625 C9.08910156 4.28566406 9.67820312 5.00882813 10.28515625 5.75390625 C12.60207765 8.78859829 14.83675315 11.85345912 17 15 C17.33 10.05 17.66 5.1 18 0 C19.65 0 21.3 0 23 0 C23 8.58 23 17.16 23 26 C21.35 26 19.7 26 18 26 C16.00138858 23.87425797 14.40461655 21.9280072 12.75 19.5625 C11.8698275 18.35544262 10.9896209 17.1484101 10.109375 15.94140625 C9.41328125 14.97074219 8.7171875 14.00007812 8 13 C7.67 12.67 7.34 12.34 7 12 C6.67 16.62 6.34 21.24 6 26 C4.02 26 2.04 26 0 26 C0 17.42 0 8.84 0 0 Z "
        fill="#C9B26E" transform="translate(413,188)" />
    <path
        d="M0 0 C0.70125 0.495 1.4025 0.99 2.125 1.5 C1.465 2.82 0.805 4.14 0.125 5.5 C-3.835 5.5 -7.795 5.5 -11.875 5.5 C-13.31132413 9.80897238 -13.58762495 13.64717513 -11.9375 17.9375 C-8.59393043 20.47050725 -4.92220363 19.80544933 -0.875 19.5 C-0.875 18.84 -0.875 18.18 -0.875 17.5 C-2.525 17.17 -4.175 16.84 -5.875 16.5 C-5.875 14.85 -5.875 13.2 -5.875 11.5 C-2.245 11.5 1.385 11.5 5.125 11.5 C5.74014196 18.75867508 5.74014196 18.75867508 2.6875 22.4375 C1.841875 23.118125 0.99625 23.79875 0.125 24.5 C-0.205 24.83 -0.535 25.16 -0.875 25.5 C-7.36827713 26.34997834 -11.62964485 25.38156281 -16.875 21.5 C-20.02799951 17.94016185 -20.51383003 14.41108441 -20.359375 9.78515625 C-19.4894286 5.68097364 -17.02718749 3.13555819 -13.875 0.5 C-9.21790791 -2.17782795 -4.79441597 -2.50143442 0 0 Z "
        fill="#936730" transform="translate(267.875,188.5)" />
    <path
        d="M0 0 C0.66 0 1.32 0 2 0 C2.08167446 1.41569064 2.13949698 2.83276805 2.1875 4.25 C2.23970703 5.43335938 2.23970703 5.43335938 2.29296875 6.640625 C1.9033901 9.77803174 1.43633575 10.93848514 -1 13 C-3.90967231 13.4924714 -6.74737217 13.37541973 -9.6875 13.25 C-10.48478516 13.23195312 -11.28207031 13.21390625 -12.10351562 13.1953125 C-14.06952449 13.14822247 -16.03491494 13.07647899 -18 13 C-18 14.65 -18 16.3 -18 18 C-17.01 18.33 -16.02 18.66 -15 19 C-15 19.33 -15 19.66 -15 20 C-21.6 20 -28.2 20 -35 20 C-33.68 18.68 -32.36 17.36 -31 16 C-29.72234735 12.36456099 -29.72234735 12.36456099 -29 9 C-27.35 9.33 -25.7 9.66 -24 10 C-24 9.34 -24 8.68 -24 8 C-16.35526412 4.96846681 -9.185766 4.3376774 -1 4 C-0.67 2.68 -0.34 1.36 0 0 Z "
        fill="#D5C57E" transform="translate(197,217)" />
    <path
        d="M0 0 C0.66 0 1.32 0 2 0 C3.35439668 2.70879335 3.06501451 5.00933268 3 8 C4.051875 7.938125 5.10375 7.87625 6.1875 7.8125 C10.15816493 8.0077786 11.84196969 8.70325068 15 11 C14.6792558 14.00888606 14.4711286 15.56186071 12.21484375 17.66015625 C9.82253192 19.1332951 7.43597075 20.59979634 5 22 C4.27425781 22.41894531 3.54851562 22.83789062 2.80078125 23.26953125 C-0.9025855 25.26582228 -3.68162686 26.53979664 -8 26 C-8 25.34 -8 24.68 -8 24 C-4.04 22.515 -4.04 22.515 0 21 C0.33 15.06 0.66 9.12 1 3 C-4.43494292 2.86675293 -9.84506104 2.77095349 -15.27807617 2.76806641 C-17.12209219 2.75610173 -18.96610291 2.72285417 -20.80932617 2.66748047 C-29.52399397 2.31192024 -29.52399397 2.31192024 -38 4 C-41.71889253 7.55241455 -43.34079103 11.19259902 -45 16 C-45.66 17.32 -46.32 18.64 -47 20 C-47 14.06 -47 8.12 -47 2 C-31.49 1.67 -15.98 1.34 0 1 C0 0.67 0 0.34 0 0 Z "
        fill="#8B7547" transform="translate(196,192)" />
    <path
        d="M0 0 C1.65 0 3.3 0 5 0 C5 3.63 5 7.26 5 11 C8.63 11 12.26 11 16 11 C16 7.37 16 3.74 16 0 C17.65 0 19.3 0 21 0 C21 8.58 21 17.16 21 26 C19.35 26 17.7 26 16 26 C16 22.37 16 18.74 16 15 C12.37 15 8.74 15 5 15 C5 18.63 5 22.26 5 26 C3.35 26 1.7 26 0 26 C0 17.42 0 8.84 0 0 Z "
        fill="#C7AB66" transform="translate(309,188)" />
    <path
        d="M0 0 C1.65 0 3.3 0 5 0 C5.33 6.27 5.66 12.54 6 19 C8.31 19.33 10.62 19.66 13 20 C14.54950268 18.45049732 14.21655193 16.90009406 14.31640625 14.74609375 C14.35830078 13.89208984 14.40019531 13.03808594 14.44335938 12.15820312 C14.48267578 11.26037109 14.52199219 10.36253906 14.5625 9.4375 C14.60568359 8.53580078 14.64886719 7.63410156 14.69335938 6.70507812 C14.79978142 4.47021515 14.90179988 2.23523692 15 0 C16.65 0 18.3 0 20 0 C20.14575327 3.39537852 20.23421542 6.78994902 20.3125 10.1875 C20.35439453 11.14720703 20.39628906 12.10691406 20.43945312 13.09570312 C20.52054124 17.78259608 20.55295232 20.21510131 17.79296875 24.1328125 C14.88004743 26.08019207 13.46253505 26.70373063 10 26.6875 C9.175 26.71199219 8.35 26.73648438 7.5 26.76171875 C4.50924432 25.85047288 2.84721797 24.4482351 0.95947266 21.96313477 C-0.95502333 18.0459688 -0.51002335 13.88542676 -0.3125 9.625 C-0.28994141 8.69816406 -0.26738281 7.77132812 -0.24414062 6.81640625 C-0.18553677 4.54257665 -0.1035693 2.27215114 0 0 Z "
        fill="#D8C57B" transform="translate(335,188)" />
    <path
        d="M0 0 C5.28 0 10.56 0 16 0 C16 1.65 16 3.3 16 5 C12.37 5 8.74 5 5 5 C5 6.65 5 8.3 5 10 C7.64 10 10.28 10 13 10 C13 11.65 13 13.3 13 15 C10.36 15 7.72 15 5 15 C5 16.98 5 18.96 5 21 C8.96 21 12.92 21 17 21 C17 22.65 17 24.3 17 26 C11.39 26 5.78 26 0 26 C0 17.42 0 8.84 0 0 Z "
        fill="#A78144" transform="translate(467,188)" />
    <path
        d="M0 0 C5.61 0 11.22 0 17 0 C17 1.65 17 3.3 17 5 C13.37 5 9.74 5 6 5 C6 6.65 6 8.3 6 10 C8.97 10 11.94 10 15 10 C15 11.65 15 13.3 15 15 C12.03 15 9.06 15 6 15 C6 18.63 6 22.26 6 26 C4.02 26 2.04 26 0 26 C0 17.42 0 8.84 0 0 Z "
        fill="#E1D58B" transform="translate(383,188)" />
    <path
        d="M0 0 C5.94 0 11.88 0 18 0 C18 1.65 18 3.3 18 5 C16.02 5 14.04 5 12 5 C12 11.93 12 18.86 12 26 C10.02 26 8.04 26 6 26 C6 19.07 6 12.14 6 5 C4.02 5 2.04 5 0 5 C0 3.35 0 1.7 0 0 Z "
        fill="#AC8B4E" transform="translate(287,188)" />
    <path
        d="M0 0 C1.9375 1.125 1.9375 1.125 3 3 C3.65341537 7.41055377 3.51318284 9.2906002 0.875 12.9375 C-2 15 -2 15 -5.0625 15.5 C-8.42877241 14.92701746 -9.79003464 14.6192182 -12 12 C-13.03001723 9.24931814 -13.41927383 6.91791922 -13 4 C-8.97250368 -0.933683 -6.31899833 -1.90762214 0 0 Z "
        fill="#8E6B39" transform="translate(438,225)" />
    <path
        d="M0 0 C2.5 1.625 2.5 1.625 4 4 C4.5625 6.9375 4.5625 6.9375 4 10 C1.54405875 13.32274404 0.0743356 14.77618008 -4 15.625 C-8.0743356 14.77618008 -9.54405875 13.32274404 -12 10 C-12.67064058 6.34873465 -12.48198314 4.76313998 -10.5 1.625 C-6.99359333 -0.65416433 -4.07099353 -0.81753559 0 0 Z "
        fill="#CDBE7A" transform="translate(333,225)" />
    <path
        d="M0 0 C7 0 7 0 9.4375 1.5 C11.33241448 4.53186317 11.64036692 6.56080456 11.44921875 10.09375 C11 12 11 12 8.875 14.5 C6 16 6 16 0 16 C0 10.72 0 5.44 0 0 Z "
        fill="#393837" transform="translate(446,193)" />
    <path
        d="M0 0 C1.60379341 -0.05416188 3.20811406 -0.09286638 4.8125 -0.125 C5.70582031 -0.14820313 6.59914063 -0.17140625 7.51953125 -0.1953125 C10 0 10 0 13 2 C13.90638489 6.01399024 14.4824628 8.62153485 13.125 12.5 C9.61547175 14.97731406 6.21052875 14.24408862 2 14 C2 10.04 2 6.08 2 2 C1.34 2 0.68 2 0 2 C0 1.34 0 0.68 0 0 Z "
        fill="#A4884F" transform="translate(285,225)" />
    <path
        d="M0 0 C1.98 0 3.96 0 6 0 C6 8.58 6 17.16 6 26 C4.02 26 2.04 26 0 26 C0 17.42 0 8.84 0 0 Z "
        fill="#D0C07B" transform="translate(403,188)" />
    <path
        d="M0 0 C1.98 0 3.96 0 6 0 C6 8.58 6 17.16 6 26 C4.02 26 2.04 26 0 26 C0 17.42 0 8.84 0 0 Z "
        fill="#9E7A41" transform="translate(277,188)" />
    <path
        d="M0 0 C0.9343689 -0.00953201 1.86873779 -0.01906403 2.8314209 -0.02888489 C3.84289185 -0.02797348 4.85436279 -0.02706207 5.89648438 -0.02612305 C7.44994568 -0.03255074 7.44994568 -0.03255074 9.03479004 -0.03910828 C11.22712471 -0.04485813 13.41947847 -0.04534704 15.61181641 -0.04101562 C18.97656585 -0.03785464 22.34043743 -0.06131078 25.70507812 -0.08666992 C27.83137909 -0.08894264 29.95768244 -0.08964654 32.08398438 -0.08862305 C33.09545532 -0.09783279 34.10692627 -0.10704254 35.14904785 -0.11653137 C36.08341675 -0.11030258 37.01778564 -0.10407379 37.98046875 -0.09765625 C38.80494507 -0.09828568 39.62942139 -0.0989151 40.47888184 -0.0995636 C41.14262817 0.0239296 41.80637451 0.14742279 42.49023438 0.2746582 C43.15023437 1.2646582 43.81023437 2.2546582 44.49023438 3.2746582 C43.89776917 3.28274506 43.30530396 3.29083191 42.69488525 3.29916382 C36.53042067 3.38519781 30.36627808 3.48470105 24.20214844 3.59204102 C21.90142218 3.63033237 19.60063602 3.66518495 17.29980469 3.6965332 C13.99327176 3.7421799 10.68715125 3.80017568 7.38085938 3.8605957 C5.83691498 3.87792252 5.83691498 3.87792252 4.26177979 3.89559937 C2.82073883 3.9254039 2.82073883 3.9254039 1.35058594 3.95581055 C0.50675354 3.96913422 -0.33707886 3.98245789 -1.20648193 3.9961853 C-3.69430923 4.29697 -5.35292161 5.02844458 -7.50976562 6.2746582 C-6.51957988 1.32372949 -5.02095016 0.0280584 0 0 Z "
        fill="#C6B26F" transform="translate(152.509765625,190.725341796875)" />
    <path
        d="M0 0 C1.60875 -0.04125 3.2175 -0.0825 4.875 -0.125 C5.77992188 -0.14820313 6.68484375 -0.17140625 7.6171875 -0.1953125 C10 0 10 0 12 2 C12.125 4.625 12.125 4.625 12 7 C11.01 7.33 10.02 7.66 9 8 C9.66 8.598125 10.32 9.19625 11 9.8125 C13 12 13 12 13 15 C11.125 14.8125 11.125 14.8125 9 14 C7.75 11.4375 7.75 11.4375 7 9 C5.35 9 3.7 9 2 9 C2 10.65 2 12.3 2 14 C1.34 14 0.68 14 0 14 C0 9.38 0 4.76 0 0 Z "
        fill="#AD9B63" transform="translate(380,225)" />
    <path
        d="M0 0 C1.60875 -0.04125 3.2175 -0.0825 4.875 -0.125 C5.77992188 -0.14820313 6.68484375 -0.17140625 7.6171875 -0.1953125 C10 0 10 0 12 2 C11.625 4.375 11.625 4.375 11 7 C11 8.32 11 9.64 11 11 C11.66 11.33 12.32 11.66 13 12 C13 12.99 13 13.98 13 15 C11.125 14.8125 11.125 14.8125 9 14 C7.75 11.4375 7.75 11.4375 7 9 C5.35 9 3.7 9 2 9 C2 10.65 2 12.3 2 14 C1.34 14 0.68 14 0 14 C0 9.38 0 4.76 0 0 Z "
        fill="#B8AD73" transform="translate(358,225)" />
    <path
        d="M0 0 C0.66 0 1.32 0 2 0 C2.08167446 1.41569064 2.13949698 2.83276805 2.1875 4.25 C2.23970703 5.43335938 2.23970703 5.43335938 2.29296875 6.640625 C1.9033901 9.77803174 1.43633575 10.93848514 -1 13 C-3.90967231 13.4924714 -6.74737217 13.37541973 -9.6875 13.25 C-10.48478516 13.23195312 -11.28207031 13.21390625 -12.10351562 13.1953125 C-14.06952449 13.14822247 -16.03491494 13.07647899 -18 13 C-18 12.67 -18 12.34 -18 12 C-15.69 12 -13.38 12 -11 12 C-10.67 9.69 -10.34 7.38 -10 5 C-5.545 4.505 -5.545 4.505 -1 4 C-0.67 2.68 -0.34 1.36 0 0 Z "
        fill="#966F39" transform="translate(197,217)" />
    <path
        d="M0 0 C1.60875 -0.04125 3.2175 -0.0825 4.875 -0.125 C5.77992188 -0.14820313 6.68484375 -0.17140625 7.6171875 -0.1953125 C10 0 10 0 12 2 C11.625 4.625 11.625 4.625 11 7 C4.25 9 4.25 9 2 9 C2 10.98 2 12.96 2 15 C1.34 15 0.68 15 0 15 C0 10.05 0 5.1 0 0 Z "
        fill="#A8894F" transform="translate(411,225)" />
    <path
        d="M0 0 C3.63 0 7.26 0 11 0 C11 0.66 11 1.32 11 2 C8.36 2 5.72 2 3 2 C3 3.32 3 4.64 3 6 C4.98 6 6.96 6 9 6 C9 6.66 9 7.32 9 8 C7.02 8 5.04 8 3 8 C3 9.32 3 10.64 3 12 C5.97 12 8.94 12 12 12 C12 12.99 12 13.98 12 15 C8.04 15 4.08 15 0 15 C0 10.05 0 5.1 0 0 Z "
        fill="#A79059" transform="translate(396,225)" />
    <path
        d="M0 0 C0.99 0 1.98 0 3 0 C4.82421875 1.96875 4.82421875 1.96875 6.6875 4.5 C7.31011719 5.3353125 7.93273437 6.170625 8.57421875 7.03125 C9.04472656 7.6809375 9.51523437 8.330625 10 9 C10.33 6.03 10.66 3.06 11 0 C11.99 0 12.98 0 14 0 C14 4.62 14 9.24 14 14 C9.81900884 12.95475221 9.27154064 12.5894258 6.75 9.4375 C6.22921875 8.79683594 5.7084375 8.15617188 5.171875 7.49609375 C4.78515625 7.00238281 4.3984375 6.50867188 4 6 C3.67 8.64 3.34 11.28 3 14 C2.34 14 1.68 14 1 14 C0.67 9.38 0.34 4.76 0 0 Z "
        fill="#907342" transform="translate(268,225)" />
    <path
        d="M0 0 C3 0.5625 3 0.5625 5 2.1875 C6 4.5625 6 4.5625 5.4375 7.75 C4 10.5625 4 10.5625 2.1875 11.5625 C-0.69897065 11.5625 -2.48990212 10.98715015 -5 9.5625 C-6 7.75 -6 7.75 -6 5.5625 C-4.57425757 1.87234314 -3.96349608 0.74315551 0 0 Z "
        fill="#343331" transform="translate(329,226.4375)" />
    <path
        d="M0 0 C3.0625 0.3125 3.0625 0.3125 5 1.4375 C6.60193488 4.26444391 5.85834319 6.26176777 5.0625 9.3125 C4.0625 10.3125 4.0625 10.3125 0.625 10.5 C-2.9375 10.3125 -2.9375 10.3125 -4.9375 8.3125 C-5.1875 5.3125 -5.1875 5.3125 -4.9375 2.3125 C-2.9375 0.3125 -2.9375 0.3125 0 0 Z "
        fill="#363534" transform="translate(432.9375,226.6875)" />
    <path
        d="M0 0 C0 3.96 0 7.92 0 12 C-1.258125 12.04125 -2.51625 12.0825 -3.8125 12.125 C-4.52019531 12.14820313 -5.22789062 12.17140625 -5.95703125 12.1953125 C-8 12 -8 12 -11 10 C-10.65191579 7.14073687 -10.2164012 6.18144409 -7.96875 4.296875 C-7.1540625 3.78640625 -6.339375 3.2759375 -5.5 2.75 C-4.6853125 2.22921875 -3.870625 1.7084375 -3.03125 1.171875 C-1 0 -1 0 0 0 Z "
        fill="#232322" transform="translate(145,213)" />
    <path
        d="M0 0 C2.05078125 0.03255208 4.1015625 0.06510417 6.15234375 0.09765625 C6.48234375 1.08765625 6.81234375 2.07765625 7.15234375 3.09765625 C4.51234375 2.76765625 1.87234375 2.43765625 -0.84765625 2.09765625 C-0.84765625 3.41765625 -0.84765625 4.73765625 -0.84765625 6.09765625 C0.82296875 6.06671875 0.82296875 6.06671875 2.52734375 6.03515625 C6.15234375 6.09765625 6.15234375 6.09765625 8.15234375 7.09765625 C8.37047385 9.78792746 8.43704691 11.56383783 7.15234375 13.97265625 C3.82328507 15.84525176 0.83309607 14.76139847 -2.84765625 14.09765625 C-3.17765625 13.10765625 -3.50765625 12.11765625 -3.84765625 11.09765625 C-0.87765625 11.42765625 2.09234375 11.75765625 5.15234375 12.09765625 C5.15234375 10.77765625 5.15234375 9.45765625 5.15234375 8.09765625 C3.76015625 8.15953125 3.76015625 8.15953125 2.33984375 8.22265625 C-0.84765625 8.09765625 -0.84765625 8.09765625 -3.84765625 6.09765625 C-2.77957394 0.14691194 -2.77957394 0.14691194 0 0 Z "
        fill="#835B2D" transform="translate(447.84765625,224.90234375)" />
    <path
        d="M0 0 C0.66 0 1.32 0 2 0 C2.33 3.96 2.66 7.92 3 12 C6.465 11.505 6.465 11.505 10 11 C10.33 7.37 10.66 3.74 11 0 C11.99 0 12.98 0 14 0 C14.6132879 8.77342419 14.6132879 8.77342419 12.4375 13.125 C10 15 10 15 6.4375 15.5625 C3 15 3 15 1.296875 13.32421875 C-0.31784114 10.43037506 -0.30504879 8.5413661 -0.1875 5.25 C-0.16042969 4.26515625 -0.13335937 3.2803125 -0.10546875 2.265625 C-0.07066406 1.51796875 -0.03585937 0.7703125 0 0 Z "
        fill="#C8C080" transform="translate(340,225)" />
    <path
        d="M0 0 C2.31 0.33 4.62 0.66 7 1 C7.80967438 3.91482778 8.21845993 5.46113217 7.0625 8.3125 C6.5365625 9.1478125 6.5365625 9.1478125 6 10 C4.02 10 2.04 10 0 10 C0 6.7 0 3.4 0 0 Z "
        fill="#302F2D" transform="translate(289,227)" />
    <path
        d="M0 0 C-1.41824133 4.84565789 -3.44427082 8.68720701 -6 13 C-6.66 14.32 -7.32 15.64 -8 17 C-8 11.72 -8 6.44 -8 1 C-5.29120665 -0.35439668 -2.99066732 -0.06501451 0 0 Z "
        fill="#B69A5A" transform="translate(157,195)" />
    <path
        d="M0 0 C1.60875 -0.04125 3.2175 -0.0825 4.875 -0.125 C5.77992188 -0.14820313 6.68484375 -0.17140625 7.6171875 -0.1953125 C10 0 10 0 12 2 C11.75 4.5625 11.75 4.5625 11 7 C10.01 7.495 10.01 7.495 9 8 C9 6.35 9 4.7 9 3 C6.69 2.67 4.38 2.34 2 2 C2 3.65 2 5.3 2 7 C3.65 7 5.3 7 7 7 C6.360625 7.226875 5.72125 7.45375 5.0625 7.6875 C2.72806339 8.85250896 2.72806339 8.85250896 2.25 11.625 C2.1675 12.40875 2.085 13.1925 2 14 C1.34 14 0.68 14 0 14 C0 9.38 0 4.76 0 0 Z "
        fill="#DCCF86" transform="translate(358,225)" />
    <path
        d="M0 0 C3.63 0 7.26 0 11 0 C11 0.66 11 1.32 11 2 C8.03 2 5.06 2 2 2 C2.33 3.32 2.66 4.64 3 6 C4.65 6 6.3 6 8 6 C8 6.66 8 7.32 8 8 C6.35 8.33 4.7 8.66 3 9 C2.67 10.98 2.34 12.96 2 15 C1.34 15 0.68 15 0 15 C0 10.05 0 5.1 0 0 Z "
        fill="#8F6029" transform="translate(248,225)" />
    <path
        d="M0 0 C2.31 0.33 4.62 0.66 7 1 C7.33 2.32 7.66 3.64 8 5 C6.85675161 6.0029542 5.71032809 7.00229027 4.5625 8 C3.60537109 8.8353125 3.60537109 8.8353125 2.62890625 9.6875 C1 11 1 11 0 11 C0 7.37 0 3.74 0 0 Z "
        fill="#2A2926" transform="translate(199,201)" />
    <path
        d="M0 0 C0.99 0 1.98 0 3 0 C3 3.63 3 7.26 3 11 C1.02 11 -0.96 11 -3 11 C-3 7.7 -3 4.4 -3 1 C-2.01 1.33 -1.02 1.66 0 2 C0 1.34 0 0.68 0 0 Z "
        fill="#EFE394" transform="translate(173,225)" />
    <path
        d="M0 0 C5.02254631 -0.2954439 7.89542386 0.01485372 12 3 C11.69593558 6.24519666 11.43719323 7.61900552 8.93359375 9.80078125 C8.10988281 10.29964844 7.28617188 10.79851562 6.4375 11.3125 C5.61121094 11.82425781 4.78492188 12.33601562 3.93359375 12.86328125 C3.29550781 13.23839844 2.65742188 13.61351562 2 14 C1.67 13.34 1.34 12.68 1 12 C1.804375 11.2575 2.60875 10.515 3.4375 9.75 C5.76988591 7.24695171 6.63534394 6.2819045 7 3 C4.69 2.34 2.38 1.68 0 1 C0 0.67 0 0.34 0 0 Z "
        fill="#906833" transform="translate(199,200)" />
    <path
        d="M0 0 C3.375 -0.125 3.375 -0.125 7 0 C9 2 9 2 9 6 C6.04335481 7.4783226 3.25770263 7.06032783 0 7 C0 4.69 0 2.38 0 0 Z "
        fill="#403F39" transform="translate(365,202)" />
    <path
        d="M0 0 C3 1 3 1 5 4 C8.27773504 3.24849977 8.27773504 3.24849977 10 0 C10.66 0 11.32 0 12 0 C10.92598892 2.91517292 10.22189824 4.77810176 8 7 C7.54188325 8.97235333 7.54188325 8.97235333 7.375 11.125 C7.189375 13.043125 7.189375 13.043125 7 15 C6.34 15 5.68 15 5 15 C4.9175 13.96875 4.835 12.9375 4.75 11.875 C3.937749 7.67836985 2.47080566 5.42724656 0 2 C0 1.34 0 0.68 0 0 Z "
        fill="#C1AB6A" transform="translate(307,225)" />
    <path
        d="M0 0 C2.31 0 4.62 0 7 0 C7.38133299 1.9914056 7.71325582 3.99279077 8 6 C7 7 7 7 3.4375 7.0625 C2.303125 7.041875 1.16875 7.02125 0 7 C0 4.69 0 2.38 0 0 Z "
        fill="#3D3B38" transform="translate(493,193)" />
    <path
        d="M0 0 C-1.95216435 1.95216435 -3.53199953 2.84826645 -6 4 C-6.16681109 6.91652174 -6.16681109 6.91652174 -6 10 C-4.04783565 11.95216435 -2.46800047 12.84826645 0 14 C-3.3125 14.3125 -3.3125 14.3125 -7 14 C-9.21513589 11.49904012 -9.87902821 9.70854905 -10.4375 6.4375 C-9.36140377 0.44210673 -5.51682382 -0.50152944 0 0 Z "
        fill="#9D7A42" transform="translate(435,225)" />
    <path
        d="M0 0 C3.3 0 6.6 0 10 0 C10 0.66 10 1.32 10 2 C7.36 2 4.72 2 2 2 C2 3.65 2 5.3 2 7 C3.65 7 5.3 7 7 7 C6.360625 7.226875 5.72125 7.45375 5.0625 7.6875 C2.72806339 8.85250896 2.72806339 8.85250896 2.25 11.625 C2.1675 12.40875 2.085 13.1925 2 14 C1.34 14 0.68 14 0 14 C0 9.38 0 4.76 0 0 Z "
        fill="#D1BC75" transform="translate(380,225)" />
    <path
        d="M0 0 C0.66 0.33 1.32 0.66 2 1 C1.67 2.32 1.34 3.64 1 5 C4.3 5.66 7.6 6.32 11 7 C11 7.33 11 7.66 11 8 C9.35 8 7.7 8 6 8 C6 8.66 6 9.32 6 10 C-0.625 9.25 -0.625 9.25 -4 7 C-3.43628586 3.73045798 -2.50037734 2.17424117 0 0 Z "
        fill="#8E6631" transform="translate(134,218)" />
    <path
        d="M0 0 C0.99 0 1.98 0 3 0 C4.60546875 1.75 4.60546875 1.75 6.1875 4 C6.71730469 4.7425 7.24710937 5.485 7.79296875 6.25 C8.19128906 6.8275 8.58960938 7.405 9 8 C8.34 8.66 7.68 9.32 7 10 C6.01 8.68 5.02 7.36 4 6 C3.67 8.64 3.34 11.28 3 14 C2.34 14 1.68 14 1 14 C0.67 9.38 0.34 4.76 0 0 Z "
        fill="#9C773E" transform="translate(268,225)" />
    <path
        d="M0 0 C1.65 0 3.3 0 5 0 C4.67 2.31 4.34 4.62 4 7 C0.0186217 8.3271261 -3.85045227 8.06915913 -8 8 C-8 7.67 -8 7.34 -8 7 C-5.69 7 -3.38 7 -1 7 C-0.67 4.69 -0.34 2.38 0 0 Z "
        fill="#B59A5A" transform="translate(187,222)" />
    <path
        d="M0 0 C0 0.33 0 0.66 0 1 C-0.90621094 1.04898438 -1.81242187 1.09796875 -2.74609375 1.1484375 C-9.70901291 1.57579127 -16.24421429 2.25281404 -23 4 C-23 4.66 -23 5.32 -23 6 C-23.66 6 -24.32 6 -25 6 C-25 5.01 -25 4.02 -25 3 C-9.04255319 -3.34042553 -9.04255319 -3.34042553 0 0 Z "
        fill="#4C4736" transform="translate(196,221)" />
    <path
        d="M0 0 C-0.66 1.98 -1.32 3.96 -2 6 C-2.33 5.01 -2.66 4.02 -3 3 C-8.28 3 -13.56 3 -19 3 C-19 2.67 -19 2.34 -19 2 C-16.20962572 1.47120316 -13.41807402 0.95165912 -10.625 0.4375 C-9.8309375 0.28603516 -9.036875 0.13457031 -8.21875 -0.02148438 C-2.2265625 -1.11328125 -2.2265625 -1.11328125 0 0 Z "
        fill="#A89158" transform="translate(168,227)" />
    <path
        d="M0 0 C0.33 0 0.66 0 1 0 C1 3.3 1 6.6 1 10 C4.48599332 9.54086322 4.48599332 9.54086322 8 8 C9.54086322 4.48599332 9.54086322 4.48599332 10 1 C10.66 1.33 11.32 1.66 12 2 C11.25 8.75 11.25 8.75 9 11 C5.98173347 11.27240673 3.03629378 11.08675125 0 11 C0 7.37 0 3.74 0 0 Z "
        fill="#B39556" transform="translate(287,228)" />
    <path
        d="M0 0 C1.98 0 3.96 0 6 0 C6.38218767 1.65614657 6.71395102 3.32457024 7 5 C6 6 6 6 2.9375 6.0625 C1.4834375 6.0315625 1.4834375 6.0315625 0 6 C0 4.02 0 2.04 0 0 Z "
        fill="#525042" transform="translate(365,192)" />
    <path
        d="M0 0 C2.01822917 0.06510417 4.03645833 0.13020833 6.0546875 0.1953125 C6.3846875 1.1853125 6.7146875 2.1753125 7.0546875 3.1953125 C4.4146875 2.8653125 1.7746875 2.5353125 -0.9453125 2.1953125 C-0.9453125 3.5153125 -0.9453125 4.8353125 -0.9453125 6.1953125 C0.3746875 6.5253125 1.6946875 6.8553125 3.0546875 7.1953125 C1.0746875 7.1953125 -0.9053125 7.1953125 -2.9453125 7.1953125 C-3.5703125 4.8203125 -3.5703125 4.8203125 -3.9453125 2.1953125 C-1.9453125 0.1953125 -1.9453125 0.1953125 0 0 Z "
        fill="#8B622F" transform="translate(447.9453125,224.8046875)" />
    <path
        d="M0 0 C-0.33 2.31 -0.66 4.62 -1 7 C-2.65 7 -4.3 7 -6 7 C-6.66 5.02 -7.32 3.04 -8 1 C-5.07175348 0.02391783 -3.04386724 -0.08226668 0 0 Z "
        fill="#CBB26C" transform="translate(187,222)" />
    <path
        d="M0 0 C0.66 0.33 1.32 0.66 2 1 C1.814375 1.598125 1.62875 2.19625 1.4375 2.8125 C0.77906313 5.16408762 0.77906313 5.16408762 2 8 C5.50294871 9.71567661 5.50294871 9.71567661 9 11 C9 11.33 9 11.66 9 12 C4.98313013 12.46707789 3.43498188 12.32150834 0.125 9.875 C-2.32150834 6.56501812 -2.46707789 5.01686987 -2 1 C-1.34 0.67 -0.68 0.34 0 0 Z "
        fill="#B9A86C" transform="translate(323,228)" />
    <path
        d="M0 0 C2.31 0 4.62 0 7 0 C7 1.32 7 2.64 7 4 C4.69 4.33 2.38 4.66 0 5 C0 3.35 0 1.7 0 0 Z "
        fill="#3D3A36" transform="translate(413,227)" />
    <path
        d="M0 0 C2.31 0 4.62 0 7 0 C7.33 1.32 7.66 2.64 8 4 C5.36 4 2.72 4 0 4 C0 2.68 0 1.36 0 0 Z "
        fill="#393835" transform="translate(360,227)" />
    <path d="M0 0 C2.31 0 4.62 0 7 0 C7 1.32 7 2.64 7 4 C4.69 4 2.38 4 0 4 C0 2.68 0 1.36 0 0 Z "
        fill="#363533" transform="translate(382,227)" />
    <path
        d="M0 0 C3.3 0 6.6 0 10 0 C10 0.66 10 1.32 10 2 C7.36 2 4.72 2 2 2 C2 3.65 2 5.3 2 7 C1.34 6.34 0.68 5.68 0 5 C0 3.35 0 1.7 0 0 Z "
        fill="#B39353" transform="translate(411,225)" />
    <path
        d="M0 0 C0.33 0 0.66 0 1 0 C1 1.65 1 3.3 1 5 C2.98 5 4.96 5 7 5 C6.360625 5.226875 5.72125 5.45375 5.0625 5.6875 C2.72806339 6.85250896 2.72806339 6.85250896 2.25 9.625 C2.1675 10.40875 2.085 11.1925 2 12 C1.34 12 0.68 12 0 12 C0 8.04 0 4.08 0 0 Z "
        fill="#E3D78C" transform="translate(358,227)" />
    <path
        d="M0 0 C6.47556391 0.61090226 6.47556391 0.61090226 8.9375 2.4375 C10 4 10 4 10 6 C6.00452264 5.38531118 3.22493358 3.34540624 0 1 C0 0.67 0 0.34 0 0 Z "
        fill="#816439" transform="translate(431,224)" />
    <path
        d="M0 0 C0.66 0 1.32 0 2 0 C2 2.31 2 4.62 2 7 C2.66 7.33 3.32 7.66 4 8 C1.03 7.505 1.03 7.505 -2 7 C-1.34 4.69 -0.68 2.38 0 0 Z "
        fill="#DACA81" transform="translate(168,226)" />
    <path
        d="M0 0 C0.28875 0.61875 0.5775 1.2375 0.875 1.875 C2.63411124 5.19776568 4.68335854 6.45223399 8 8 C5.69 8 3.38 8 1 8 C-0.42944945 5.64561267 -1.08661261 4.51967567 -0.625 1.75 C-0.41875 1.1725 -0.2125 0.595 0 0 Z "
        fill="#937340" transform="translate(427,231)" />
    <path
        d="M0 0 C0.66 0 1.32 0 2 0 C2.05399736 1.45792884 2.09279177 2.91642712 2.125 4.375 C2.14820313 5.18710938 2.17140625 5.99921875 2.1953125 6.8359375 C2 9 2 9 0 11 C-1.28571429 3.57142857 -1.28571429 3.57142857 0 0 Z "
        fill="#93642B" transform="translate(197,217)" />
    <path
        d="M0 0 C3.68802044 1.22934015 4.72356973 2.93859378 7 6 C5.68 6.33 4.36 6.66 3 7 C0 2.25 0 2.25 0 0 Z "
        fill="#A7935C" transform="translate(307,225)" />
    <path
        d="M0 0 C0 0.66 0 1.32 0 2 C-3.22791555 4.1519437 -4.28400809 4.20086443 -8 4 C-8 3.34 -8 2.68 -8 2 C-5.09399739 0.74335022 -3.20395416 0 0 0 Z "
        fill="#A88E54" transform="translate(196,214)" />
    <path
        d="M0 0 C0.99 0.33 1.98 0.66 3 1 C2.67 2.98 2.34 4.96 2 7 C1.01 7 0.02 7 -1 7 C-0.67 4.69 -0.34 2.38 0 0 Z "
        fill="#A88042" transform="translate(192,222)" />
    <path
        d="M0 0 C0.99 0 1.98 0 3 0 C2.67 2.31 2.34 4.62 2 7 C1.34 7 0.68 7 0 7 C0 4.69 0 2.38 0 0 Z "
        fill="#B28E4D" transform="translate(189,222)" />
</svg>