<svg xmlns="http://www.w3.org/2000/svg" width="60" height="60" viewBox="0 0 60 60" fill="none">
    <path fill-rule="evenodd" clip-rule="evenodd" d="M28.875 10.75C24.068 10.75 19.4578 12.6596 16.0587 16.0587C12.6596 19.4578 10.75 24.068 10.75 28.875C10.75 33.682 12.6596 38.2922 16.0587 41.6913C19.4578 45.0904 24.068 47 28.875 47C33.682 47 38.2922 45.0904 41.6913 41.6913C45.0904 38.2922 47 33.682 47 28.875C47 24.068 45.0904 19.4578 41.6913 16.0587C38.2922 12.6596 33.682 10.75 28.875 10.75ZM7 28.875C7 23.0734 9.30468 17.5094 13.407 13.407C17.5094 9.30468 23.0734 7 28.875 7C34.6766 7 40.2406 9.30468 44.343 13.407C48.4453 17.5094 50.75 23.0734 50.75 28.875C50.75 34.6766 48.4453 40.2406 44.343 44.343C40.2406 48.4453 34.6766 50.75 28.875 50.75C23.0734 50.75 17.5094 48.4453 13.407 44.343C9.30468 40.2406 7 34.6766 7 28.875Z" fill="#F8FAFC"/>
    <path fill-rule="evenodd" clip-rule="evenodd" d="M42.3 42.3C42.6516 41.9489 43.1281 41.7516 43.625 41.7516C44.1219 41.7516 44.5984 41.9489 44.95 42.3L52.45 49.8C52.7812 50.1554 52.9615 50.6256 52.9529 51.1113C52.9444 51.5971 52.7476 52.0605 52.4041 52.4041C52.0605 52.7476 51.5971 52.9444 51.1113 52.9529C50.6256 52.9615 50.1554 52.7812 49.8 52.45L42.3 44.95C41.9489 44.5984 41.7516 44.1219 41.7516 43.625C41.7516 43.1281 41.9489 42.6516 42.3 42.3Z" fill="#F8FAFC"/>
    <path d="M37.93 25.0349C38.1648 24.3304 38.2823 23.6 38.2823 22.8436C38.2823 21.8348 38.0604 20.8869 37.617 20C36.6867 20 35.865 20.1697 35.1518 20.5088C34.4389 20.8479 33.6259 21.3739 32.7131 22.087C31.5654 21.8087 30.3477 21.6696 29.061 21.6696C27.6522 21.6696 26.3087 21.8219 25.0305 22.1262C24.1001 21.3957 23.2784 20.8589 22.5653 20.5153C21.8523 20.1718 21.0262 20 20.087 20C19.6436 20.887 19.4219 21.8349 19.4219 22.8436C19.4219 23.6089 19.5392 24.348 19.774 25.0609C18.5913 26.4436 18 28.1653 18 30.2262C18 32.0351 18.2695 33.4741 18.8087 34.5438C19.0957 35.1088 19.4695 35.6088 19.9304 36.0437C20.3912 36.4784 20.9173 36.8308 21.5086 37.1005C22.1001 37.3698 22.6956 37.5939 23.2957 37.772C23.8957 37.9502 24.5587 38.0807 25.2848 38.163C26.0109 38.246 26.6522 38.3002 27.2087 38.3265C27.7652 38.3523 28.3825 38.3655 29.0609 38.3655C29.8608 38.3655 30.5866 38.3457 31.2391 38.3069C31.8914 38.2678 32.6368 38.172 33.4761 38.0201C34.3152 37.8679 35.0544 37.6612 35.6936 37.4004C36.3328 37.1397 36.946 36.7656 37.5329 36.2788C38.1198 35.7917 38.5783 35.2135 38.909 34.5439C39.4391 33.4655 39.7044 32.0263 39.7044 30.2263C39.7041 28.1566 39.1128 26.4262 37.93 25.0349ZM36.3653 34.5239C36.087 35.0937 35.7347 35.5411 35.3087 35.8675C34.8825 36.1937 34.3522 36.4545 33.7175 36.6504C33.0824 36.8459 32.474 36.9741 31.8914 37.0348C31.3085 37.0957 30.6609 37.1261 29.9477 37.1261H27.7563C27.0433 37.1261 26.3954 37.0957 25.8128 37.0348C25.2303 36.9741 24.6216 36.8459 23.9867 36.6504C23.3521 36.4545 22.8218 36.1937 22.3956 35.8675C21.9694 35.5411 21.6172 35.0937 21.339 34.5239C21.0607 33.9542 20.9216 33.287 20.9216 32.5218C20.9216 31.478 21.2216 30.591 21.8217 29.8609C22.4217 29.1304 23.2347 28.7652 24.2607 28.7652C24.6348 28.7652 25.4826 28.8565 26.8043 29.0391C27.4217 29.1347 28.1043 29.1826 28.8521 29.1826C29.6 29.1826 30.2826 29.1349 30.8999 29.0391C32.2392 28.8564 33.0868 28.7652 33.4435 28.7652C34.4695 28.7652 35.2825 29.1305 35.8825 29.8609C36.4826 30.5913 36.7824 31.478 36.7824 32.5218C36.7824 33.2871 36.6432 33.9547 36.3653 34.5239Z" fill="#F8FAFC"/>
    <path d="M25.6238 30.4609C25.3585 30.1651 25.0434 30.0172 24.6781 30.0172C24.3127 30.0172 23.9976 30.1653 23.7324 30.4609C23.4673 30.7564 23.2802 31.0869 23.1716 31.4518C23.0627 31.8174 23.0085 32.1738 23.0085 32.5218C23.0085 32.8695 23.0629 33.226 23.1716 33.5915C23.2801 33.9566 23.4671 34.2869 23.7324 34.5824C23.9977 34.8782 24.3127 35.0261 24.6781 35.0261C25.0434 35.0261 25.3586 34.8779 25.6238 34.5824C25.8889 34.2869 26.0759 33.9566 26.1845 33.5915C26.2933 33.226 26.3477 32.8695 26.3477 32.5218C26.3477 32.1741 26.2934 31.8174 26.1845 31.4518C26.0759 31.0871 25.8891 30.7567 25.6238 30.4609Z" fill="#F8FAFC"/>
    <path d="M33.9717 30.4609C33.7065 30.1651 33.3913 30.0172 33.0261 30.0172C32.6611 30.0172 32.3457 30.1653 32.0804 30.4609C31.8152 30.7564 31.6283 31.0869 31.5198 31.4518C31.4108 31.8174 31.3564 32.1738 31.3564 32.5218C31.3564 32.8695 31.4108 33.226 31.5198 33.5915C31.6283 33.9566 31.8153 34.2869 32.0804 34.5824C32.3457 34.8782 32.6611 35.0261 33.0261 35.0261C33.3913 35.0261 33.7066 34.8779 33.9717 34.5824C34.2367 34.2869 34.4238 33.9566 34.5326 33.5915C34.6413 33.226 34.6957 32.8695 34.6957 32.5218C34.6957 32.1741 34.6413 31.8174 34.5326 31.4518C34.4238 31.0871 34.2367 30.7567 33.9717 30.4609Z" fill="#F8FAFC"/>
  </svg>